<?xml version="1.0" encoding="UTF-8" standalone="no"?>
<!-- Created with Inkscape (http://www.inkscape.org/) -->

<svg
   xmlns:dc="http://purl.org/dc/elements/1.1/"
   xmlns:cc="http://creativecommons.org/ns#"
   xmlns:rdf="http://www.w3.org/1999/02/22-rdf-syntax-ns#"
   xmlns:svg="http://www.w3.org/2000/svg"
   xmlns="http://www.w3.org/2000/svg"
   xmlns:sodipodi="http://sodipodi.sourceforge.net/DTD/sodipodi-0.dtd"
   xmlns:inkscape="http://www.inkscape.org/namespaces/inkscape"
   width="716.49561"
   height="881.86084"
   id="svg2"
   version="1.1"
   inkscape:version="0.48.4 r9939"
   sodipodi:docname="multilevel.svg">
  <defs
     id="defs4" />
  <sodipodi:namedview
     id="base"
     pagecolor="#ffffff"
     bordercolor="#666666"
     borderopacity="1.0"
     inkscape:pageopacity="0.0"
     inkscape:pageshadow="2"
     inkscape:zoom="0.7"
     inkscape:cx="370.81303"
     inkscape:cy="449.66525"
     inkscape:document-units="px"
     inkscape:current-layer="layer1"
     showgrid="false"
     inkscape:window-width="1600"
     inkscape:window-height="824"
     inkscape:window-x="0"
     inkscape:window-y="24"
     inkscape:window-maximized="1"
     fit-margin-top="0"
     fit-margin-left="0"
     fit-margin-right="0"
     fit-margin-bottom="0" />
  <metadata
     id="metadata7">
    <rdf:RDF>
      <cc:Work
         rdf:about="">
        <dc:format>image/svg+xml</dc:format>
        <dc:type
           rdf:resource="http://purl.org/dc/dcmitype/StillImage" />
        <dc:title />
      </cc:Work>
    </rdf:RDF>
  </metadata>
  <g
     inkscape:label="Layer 1"
     inkscape:groupmode="layer"
     id="layer1"
     transform="translate(-19.208135,-88.186798)">
    <rect
       style="fill:none;stroke:#000000;stroke-width:2.07901835;stroke-opacity:1"
       id="rect2987"
       width="123.14944"
       height="56.47937"
       x="72.270493"
       y="375.09949" />
    <path
       sodipodi:type="arc"
       style="fill:none;stroke:#000000;stroke-width:3;stroke-opacity:1"
       id="path2989"
       sodipodi:cx="321.73358"
       sodipodi:cy="197.26805"
       sodipodi:rx="107.58125"
       sodipodi:ry="107.58125"
       d="m 429.31483,197.26805 c 0,59.41549 -48.16576,107.58125 -107.58125,107.58125 -59.41548,0 -107.58125,-48.16576 -107.58125,-107.58125 0,-59.41548 48.16577,-107.581252 107.58125,-107.581252 59.41549,0 107.58125,48.165772 107.58125,107.581252 z" />
    <g
       id="g3025">
      <path
         d="m 335.37063,114.43555 c 0,8.08943 -6.55778,14.64721 -14.64721,14.64721 -8.08943,0 -14.64721,-6.55778 -14.64721,-14.64721 0,-8.08943 6.55778,-14.647215 14.64721,-14.647215 8.08943,0 14.64721,6.557785 14.64721,14.647215 z"
         sodipodi:ry="14.647212"
         sodipodi:rx="14.647212"
         sodipodi:cy="114.43555"
         sodipodi:cx="320.72342"
         id="path2991"
         style="fill:none;stroke:#000000;stroke-width:3;stroke-opacity:1"
         sodipodi:type="arc" />
      <path
         d="m 335.37063,114.43555 c 0,8.08943 -6.55778,14.64721 -14.64721,14.64721 -8.08943,0 -14.64721,-6.55778 -14.64721,-14.64721 0,-8.08943 6.55778,-14.647215 14.64721,-14.647215 8.08943,0 14.64721,6.557785 14.64721,14.647215 z"
         sodipodi:ry="14.647212"
         sodipodi:rx="14.647212"
         sodipodi:cy="114.43555"
         sodipodi:cx="320.72342"
         id="path2991-0"
         style="fill:none;stroke:#000000;stroke-width:3;stroke-opacity:1"
         sodipodi:type="arc"
         transform="translate(-1.5152153,164.14978)" />
      <path
         d="m 335.37063,114.43555 c 0,8.08943 -6.55778,14.64721 -14.64721,14.64721 -8.08943,0 -14.64721,-6.55778 -14.64721,-14.64721 0,-8.08943 6.55778,-14.647215 14.64721,-14.647215 8.08943,0 14.64721,6.557785 14.64721,14.647215 z"
         sodipodi:ry="14.647212"
         sodipodi:rx="14.647212"
         sodipodi:cy="114.43555"
         sodipodi:cx="320.72342"
         id="path2991-9"
         style="fill:none;stroke:#000000;stroke-width:3;stroke-opacity:1"
         sodipodi:type="arc"
         transform="translate(-83.337571,83.337582)" />
      <path
         d="m 335.37063,114.43555 c 0,8.08943 -6.55778,14.64721 -14.64721,14.64721 -8.08943,0 -14.64721,-6.55778 -14.64721,-14.64721 0,-8.08943 6.55778,-14.647215 14.64721,-14.647215 8.08943,0 14.64721,6.557785 14.64721,14.647215 z"
         sodipodi:ry="14.647212"
         sodipodi:rx="14.647212"
         sodipodi:cy="114.43555"
         sodipodi:cx="320.72342"
         id="path2991-05"
         style="fill:none;stroke:#000000;stroke-width:3;stroke-opacity:1"
         sodipodi:type="arc"
         transform="translate(85.357904,78.28682)" />
    </g>
    <path
       sodipodi:type="arc"
       style="fill:none;stroke:#000000;stroke-width:3;stroke-opacity:1"
       id="path2991-2"
       sodipodi:cx="320.72342"
       sodipodi:cy="114.43555"
       sodipodi:rx="14.647212"
       sodipodi:ry="14.647212"
       d="m 335.37063,114.43555 c 0,8.08943 -6.55778,14.64721 -14.64721,14.64721 -8.08943,0 -14.64721,-6.55778 -14.64721,-14.64721 0,-8.08943 6.55778,-14.647215 14.64721,-14.647215 8.08943,0 14.64721,6.557785 14.64721,14.647215 z"
       transform="matrix(0.70226141,0.71191917,-0.71191917,0.70226141,234.17682,-169.27687)" />
    <path
       transform="matrix(0.70226141,0.71191917,-0.71191917,0.70226141,116.25137,-55.079525)"
       sodipodi:type="arc"
       style="fill:none;stroke:#000000;stroke-width:3;stroke-opacity:1"
       id="path2991-0-7"
       sodipodi:cx="320.72342"
       sodipodi:cy="114.43555"
       sodipodi:rx="14.647212"
       sodipodi:ry="14.647212"
       d="m 335.37063,114.43555 c 0,8.08943 -6.55778,14.64721 -14.64721,14.64721 -8.08943,0 -14.64721,-6.55778 -14.64721,-14.64721 0,-8.08943 6.55778,-14.647215 14.64721,-14.647215 8.08943,0 14.64721,6.557785 14.64721,14.647215 z" />
    <path
       transform="matrix(0.70226141,0.71191917,-0.71191917,0.70226141,118.32244,-168.08172)"
       sodipodi:type="arc"
       style="fill:none;stroke:#000000;stroke-width:3;stroke-opacity:1"
       id="path2991-9-3"
       sodipodi:cx="320.72342"
       sodipodi:cy="114.43555"
       sodipodi:rx="14.647212"
       sodipodi:ry="14.647212"
       d="m 335.37063,114.43555 c 0,8.08943 -6.55778,14.64721 -14.64721,14.64721 -8.08943,0 -14.64721,-6.55778 -14.64721,-14.64721 0,-8.08943 6.55778,-14.647215 14.64721,-14.647215 8.08943,0 14.64721,6.557785 14.64721,14.647215 z" />
    <path
       transform="matrix(0.70226141,0.71191917,-0.71191917,0.70226141,238.38649,-53.531129)"
       sodipodi:type="arc"
       style="fill:none;stroke:#000000;stroke-width:3;stroke-opacity:1"
       id="path2991-05-8"
       sodipodi:cx="320.72342"
       sodipodi:cy="114.43555"
       sodipodi:rx="14.647212"
       sodipodi:ry="14.647212"
       d="m 335.37063,114.43555 c 0,8.08943 -6.55778,14.64721 -14.64721,14.64721 -8.08943,0 -14.64721,-6.55778 -14.64721,-14.64721 0,-8.08943 6.55778,-14.647215 14.64721,-14.647215 8.08943,0 14.64721,6.557785 14.64721,14.647215 z" />
    <path
       style="fill:none;stroke:#000000;stroke-width:3;stroke-linecap:butt;stroke-linejoin:miter;stroke-opacity:1"
       d="M 163.64471,374.54982 249.50768,265.45335"
       id="path3065"
       inkscape:connector-curvature="0" />
    <path
       style="fill:none;stroke:#000000;stroke-width:1px;stroke-linecap:butt;stroke-linejoin:miter;stroke-opacity:1"
       d="M 195.96959,373.53967 308.09653,288.68686"
       id="path3069"
       inkscape:connector-curvature="0" />
    <path
       style="fill:none;stroke:#000000;stroke-width:1px;stroke-linecap:butt;stroke-linejoin:miter;stroke-opacity:1"
       d="M 135.36044,373.53967 312.13714,128.0726"
       id="path3071"
       inkscape:connector-curvature="0" />
    <path
       style="fill:none;stroke:#000000;stroke-width:1px;stroke-linecap:butt;stroke-linejoin:miter;stroke-opacity:1"
       d="M 180.81731,374.54982 390.92904,198.78328"
       id="path3073"
       inkscape:connector-curvature="0" />
    <rect
       style="fill:none;stroke:#000000;stroke-width:2.07901835;stroke-opacity:1"
       id="rect2987-0"
       width="123.14944"
       height="56.47937"
       x="232.37967"
       y="678.65027" />
    <path
       transform="matrix(0.70226141,0.71191917,-0.71191917,0.70226141,533.03939,217.37989)"
       sodipodi:type="arc"
       style="fill:none;stroke:#000000;stroke-width:3;stroke-opacity:1"
       id="path2991-05-8-8"
       sodipodi:cx="320.72342"
       sodipodi:cy="114.43555"
       sodipodi:rx="14.647212"
       sodipodi:ry="14.647212"
       d="m 335.37063,114.43555 c 0,8.08943 -6.55778,14.64721 -14.64721,14.64721 -8.08943,0 -14.64721,-6.55778 -14.64721,-14.64721 0,-8.08943 6.55778,-14.647215 14.64721,-14.647215 8.08943,0 14.64721,6.557785 14.64721,14.647215 z" />
    <flowRoot
       xml:space="preserve"
       id="flowRoot3131"
       style="font-size:40px;font-style:normal;font-weight:normal;line-height:125%;letter-spacing:0px;word-spacing:0px;fill:#000000;fill-opacity:1;stroke:none;font-family:Sans"
       transform="translate(-73.741136,-13.131983)"><flowRegion
         id="flowRegion3133"><rect
           id="rect3135"
           width="174.75639"
           height="113.13708"
           x="510.12704"
           y="126.0523" /></flowRegion><flowPara
         id="flowPara3137"
         style="font-size:25px">Header chain</flowPara></flowRoot>    <path
       transform="matrix(0.70226141,0.71191917,-0.71191917,0.70226141,432.02413,210.30881)"
       sodipodi:type="arc"
       style="fill:none;stroke:#000000;stroke-width:3;stroke-opacity:1"
       id="path2991-05-8-7"
       sodipodi:cx="320.72342"
       sodipodi:cy="114.43555"
       sodipodi:rx="14.647212"
       sodipodi:ry="14.647212"
       d="m 335.37063,114.43555 c 0,8.08943 -6.55778,14.64721 -14.64721,14.64721 -8.08943,0 -14.64721,-6.55778 -14.64721,-14.64721 0,-8.08943 6.55778,-14.647215 14.64721,-14.647215 8.08943,0 14.64721,6.557785 14.64721,14.647215 z" />
    <path
       transform="matrix(0.70226141,0.71191917,-0.71191917,0.70226141,492.12821,199.70222)"
       sodipodi:type="arc"
       style="fill:none;stroke:#000000;stroke-width:3;stroke-opacity:1"
       id="path2991-05-8-8-8"
       sodipodi:cx="320.72342"
       sodipodi:cy="114.43555"
       sodipodi:rx="14.647212"
       sodipodi:ry="14.647212"
       d="m 335.37063,114.43555 c 0,8.08943 -6.55778,14.64721 -14.64721,14.64721 -8.08943,0 -14.64721,-6.55778 -14.64721,-14.64721 0,-8.08943 6.55778,-14.647215 14.64721,-14.647215 8.08943,0 14.64721,6.557785 14.64721,14.647215 z" />
    <path
       transform="matrix(0.70226141,0.71191917,-0.71191917,0.70226141,464.85408,234.0474)"
       sodipodi:type="arc"
       style="fill:none;stroke:#000000;stroke-width:3;stroke-opacity:1"
       id="path2991-05-8-7-1"
       sodipodi:cx="320.72342"
       sodipodi:cy="114.43555"
       sodipodi:rx="14.647212"
       sodipodi:ry="14.647212"
       d="m 335.37063,114.43555 c 0,8.08943 -6.55778,14.64721 -14.64721,14.64721 -8.08943,0 -14.64721,-6.55778 -14.64721,-14.64721 0,-8.08943 6.55778,-14.647215 14.64721,-14.647215 8.08943,0 14.64721,6.557785 14.64721,14.647215 z" />
    <path
       sodipodi:type="arc"
       style="fill:none;stroke:#000000;stroke-width:3;stroke-opacity:1"
       id="path3178"
       sodipodi:cx="376.28183"
       sodipodi:cy="523.5473"
       sodipodi:rx="353.04831"
       sodipodi:ry="50.002552"
       d="m 729.33014,523.5473 c 0,27.61565 -158.06511,50.00255 -353.04831,50.00255 -194.9832,0 -353.048309,-22.3869 -353.048309,-50.00255 0,-27.61564 158.065109,-50.00255 353.048309,-50.00255 194.9832,0 353.04831,22.38691 353.04831,50.00255 z" />
    <flowRoot
       xml:space="preserve"
       id="flowRoot3131-2"
       style="font-size:40px;font-style:normal;font-weight:normal;line-height:125%;letter-spacing:0px;word-spacing:0px;fill:#000000;fill-opacity:1;stroke:none;font-family:Sans"
       transform="translate(61.912977,445.0207)"><flowRegion
         id="flowRegion3133-9"><rect
           id="rect3135-2"
           width="174.75639"
           height="113.13708"
           x="510.12704"
           y="126.0523" /></flowRegion><flowPara
         id="flowPara3137-7"
         style="font-size:25px">Level 2 State</flowPara></flowRoot>    <path
       style="fill:none;stroke:#000000;stroke-width:1;stroke-linecap:butt;stroke-linejoin:miter;stroke-opacity:1"
       d="m 395.23336,260.15108 75.23402,33.83807"
       id="path3069-8"
       inkscape:connector-curvature="0" />
    <flowRoot
       xml:space="preserve"
       id="flowRoot3131-3"
       style="font-size:40px;font-style:normal;font-weight:normal;line-height:125%;letter-spacing:0px;word-spacing:0px;fill:#000000;fill-opacity:1;stroke:none;font-family:Sans"
       transform="translate(-70.417008,154.09676)"><flowRegion
         id="flowRegion3133-3"><rect
           id="rect3135-6"
           width="174.75639"
           height="113.13708"
           x="510.12704"
           y="126.0523" /></flowRegion><flowPara
         id="flowPara3137-5"
         style="font-size:25px;text-align:center;text-anchor:middle">Level 1 Validators</flowPara></flowRoot>    <path
       transform="matrix(0.70226141,0.71191917,-0.71191917,0.70226141,394.64849,191.11592)"
       sodipodi:type="arc"
       style="fill:none;stroke:#000000;stroke-width:3;stroke-opacity:1"
       id="path2991-05-8-7-8"
       sodipodi:cx="320.72342"
       sodipodi:cy="114.43555"
       sodipodi:rx="14.647212"
       sodipodi:ry="14.647212"
       d="m 335.37063,114.43555 c 0,8.08943 -6.55778,14.64721 -14.64721,14.64721 -8.08943,0 -14.64721,-6.55778 -14.64721,-14.64721 0,-8.08943 6.55778,-14.647215 14.64721,-14.647215 8.08943,0 14.64721,6.557785 14.64721,14.647215 z" />
    <path
       transform="matrix(0.70226141,0.71191917,-0.71191917,0.70226141,395.65864,236.57278)"
       sodipodi:type="arc"
       style="fill:none;stroke:#000000;stroke-width:3;stroke-opacity:1"
       id="path2991-05-8-7-2"
       sodipodi:cx="320.72342"
       sodipodi:cy="114.43555"
       sodipodi:rx="14.647212"
       sodipodi:ry="14.647212"
       d="m 335.37063,114.43555 c 0,8.08943 -6.55778,14.64721 -14.64721,14.64721 -8.08943,0 -14.64721,-6.55778 -14.64721,-14.64721 0,-8.08943 6.55778,-14.647215 14.64721,-14.647215 8.08943,0 14.64721,6.557785 14.64721,14.647215 z" />
    <path
       transform="matrix(0.70226141,0.71191917,-0.71191917,0.70226141,362.82868,212.8342)"
       sodipodi:type="arc"
       style="fill:none;stroke:#000000;stroke-width:3;stroke-opacity:1"
       id="path2991-05-8-7-5"
       sodipodi:cx="320.72342"
       sodipodi:cy="114.43555"
       sodipodi:rx="14.647212"
       sodipodi:ry="14.647212"
       d="m 335.37063,114.43555 c 0,8.08943 -6.55778,14.64721 -14.64721,14.64721 -8.08943,0 -14.64721,-6.55778 -14.64721,-14.64721 0,-8.08943 6.55778,-14.647215 14.64721,-14.647215 8.08943,0 14.64721,6.557785 14.64721,14.647215 z" />
    <path
       transform="matrix(0.70226141,0.71191917,-0.71191917,0.70226141,325.45304,193.64131)"
       sodipodi:type="arc"
       style="fill:none;stroke:#000000;stroke-width:3;stroke-opacity:1"
       id="path2991-05-8-7-8-2"
       sodipodi:cx="320.72342"
       sodipodi:cy="114.43555"
       sodipodi:rx="14.647212"
       sodipodi:ry="14.647212"
       d="m 335.37063,114.43555 c 0,8.08943 -6.55778,14.64721 -14.64721,14.64721 -8.08943,0 -14.64721,-6.55778 -14.64721,-14.64721 0,-8.08943 6.55778,-14.647215 14.64721,-14.647215 8.08943,0 14.64721,6.557785 14.64721,14.647215 z" />
    <path
       transform="matrix(0.70226141,0.71191917,-0.71191917,0.70226141,326.46319,239.09817)"
       sodipodi:type="arc"
       style="fill:none;stroke:#000000;stroke-width:3;stroke-opacity:1"
       id="path2991-05-8-7-2-4"
       sodipodi:cx="320.72342"
       sodipodi:cy="114.43555"
       sodipodi:rx="14.647212"
       sodipodi:ry="14.647212"
       d="m 335.37063,114.43555 c 0,8.08943 -6.55778,14.64721 -14.64721,14.64721 -8.08943,0 -14.64721,-6.55778 -14.64721,-14.64721 0,-8.08943 6.55778,-14.647215 14.64721,-14.647215 8.08943,0 14.64721,6.557785 14.64721,14.647215 z" />
    <path
       transform="matrix(0.70226141,0.71191917,-0.71191917,0.70226141,284.03678,183.53977)"
       sodipodi:type="arc"
       style="fill:none;stroke:#000000;stroke-width:3;stroke-opacity:1"
       id="path2991-05-8-7-4"
       sodipodi:cx="320.72342"
       sodipodi:cy="114.43555"
       sodipodi:rx="14.647212"
       sodipodi:ry="14.647212"
       d="m 335.37063,114.43555 c 0,8.08943 -6.55778,14.64721 -14.64721,14.64721 -8.08943,0 -14.64721,-6.55778 -14.64721,-14.64721 0,-8.08943 6.55778,-14.647215 14.64721,-14.647215 8.08943,0 14.64721,6.557785 14.64721,14.647215 z" />
    <path
       transform="matrix(0.70226141,0.71191917,-0.71191917,0.70226141,258.78297,215.86466)"
       sodipodi:type="arc"
       style="fill:none;stroke:#000000;stroke-width:3;stroke-opacity:1"
       id="path2991-05-8-7-8-5"
       sodipodi:cx="320.72342"
       sodipodi:cy="114.43555"
       sodipodi:rx="14.647212"
       sodipodi:ry="14.647212"
       d="m 335.37063,114.43555 c 0,8.08943 -6.55778,14.64721 -14.64721,14.64721 -8.08943,0 -14.64721,-6.55778 -14.64721,-14.64721 0,-8.08943 6.55778,-14.647215 14.64721,-14.647215 8.08943,0 14.64721,6.557785 14.64721,14.647215 z" />
    <path
       transform="matrix(0.70226141,0.71191917,-0.71191917,0.70226141,288.07738,244.14893)"
       sodipodi:type="arc"
       style="fill:none;stroke:#000000;stroke-width:3;stroke-opacity:1"
       id="path2991-05-8-7-2-5"
       sodipodi:cx="320.72342"
       sodipodi:cy="114.43555"
       sodipodi:rx="14.647212"
       sodipodi:ry="14.647212"
       d="m 335.37063,114.43555 c 0,8.08943 -6.55778,14.64721 -14.64721,14.64721 -8.08943,0 -14.64721,-6.55778 -14.64721,-14.64721 0,-8.08943 6.55778,-14.647215 14.64721,-14.647215 8.08943,0 14.64721,6.557785 14.64721,14.647215 z" />
    <path
       style="fill:none;stroke:#000000;stroke-width:1.45564234px;stroke-linecap:butt;stroke-linejoin:miter;stroke-opacity:1"
       d="M 134.13262,539.98702 90.121245,430.33603"
       id="path3312"
       inkscape:connector-curvature="0" />
    <path
       style="fill:none;stroke:#000000;stroke-width:1.09486485px;stroke-linecap:butt;stroke-linejoin:miter;stroke-opacity:1"
       d="M 156.53636,430.15563 121.25559,532.08619"
       id="path3316"
       inkscape:connector-curvature="0" />
    <path
       style="fill:none;stroke:#000000;stroke-width:2.54391861px;stroke-linecap:butt;stroke-linejoin:miter;stroke-opacity:1"
       d="m 185.62988,432.85987 63.10584,243.92315"
       id="path3318"
       inkscape:connector-curvature="0" />
    <path
       style="fill:none;stroke:#000000;stroke-width:1.21991837px;stroke-linecap:butt;stroke-linejoin:miter;stroke-opacity:1"
       d="m 137.49071,431.22833 26.04404,101.80548"
       id="path3320"
       inkscape:connector-curvature="0" />
    <path
       style="fill:none;stroke:#000000;stroke-width:1.40885973px;stroke-linecap:butt;stroke-linejoin:miter;stroke-opacity:1"
       d="M 116.97328,432.33294 86.067391,534.95965"
       id="path3322"
       inkscape:connector-curvature="0" />
    <path
       style="fill:none;stroke:#000000;stroke-width:1;stroke-linecap:butt;stroke-linejoin:miter;stroke-opacity:1"
       d="m 614.92933,428.8567 -33.83807,75.23402"
       id="path3069-8-3"
       inkscape:connector-curvature="0" />
    <flowRoot
       xml:space="preserve"
       id="flowRoot3131-3-8"
       style="font-size:40px;font-style:normal;font-weight:normal;text-align:center;line-height:125%;letter-spacing:0px;word-spacing:0px;text-anchor:middle;fill:#000000;fill-opacity:1;stroke:none;font-family:Sans"
       transform="translate(55.711222,236.92928)"><flowRegion
         id="flowRegion3133-3-2"><rect
           id="rect3135-6-7"
           width="174.75639"
           height="113.13708"
           x="510.12704"
           y="126.0523"
           style="text-align:center;text-anchor:middle" /></flowRegion><flowPara
         id="flowPara3137-5-0"
         style="font-size:25px;text-align:center;text-anchor:middle">Level 2 Validators</flowPara></flowRoot>    <path
       transform="translate(-2.5253853,304.56102)"
       sodipodi:type="arc"
       style="fill:none;stroke:#000000;stroke-width:3;stroke-opacity:1"
       id="path3178-0"
       sodipodi:cx="376.28183"
       sodipodi:cy="523.5473"
       sodipodi:rx="353.04831"
       sodipodi:ry="50.002552"
       d="m 729.33014,523.5473 c 0,27.61565 -158.06511,50.00255 -353.04831,50.00255 -194.9832,0 -353.048309,-22.3869 -353.048309,-50.00255 0,-27.61564 158.065109,-50.00255 353.048309,-50.00255 194.9832,0 353.04831,22.38691 353.04831,50.00255 z" />
    <flowRoot
       xml:space="preserve"
       id="flowRoot3131-2-0"
       style="font-size:40px;font-style:normal;font-weight:normal;line-height:125%;letter-spacing:0px;word-spacing:0px;fill:#000000;fill-opacity:1;stroke:none;font-family:Sans"
       transform="translate(62.895643,755.13753)"><flowRegion
         id="flowRegion3133-9-0"><rect
           id="rect3135-2-0"
           width="174.75639"
           height="113.13708"
           x="510.12704"
           y="126.0523" /></flowRegion><flowPara
         id="flowPara3137-7-3"
         style="font-size:25px">Level 3 State</flowPara></flowRoot>    <flowRoot
       xml:space="preserve"
       id="flowRoot3416"
       style="font-size:40px;font-style:normal;font-weight:normal;line-height:125%;letter-spacing:0px;word-spacing:0px;fill:#000000;fill-opacity:1;stroke:none;font-family:Sans"><flowRegion
         id="flowRegion3418"><rect
           id="rect3420"
           width="968.73627"
           height="537.40118"
           x="-164.65486"
           y="36.148724" /></flowRegion><flowPara
         id="flowPara3422" /></flowRoot>    <path
       style="fill:none;stroke:#000000;stroke-width:1.29746187px;stroke-linecap:butt;stroke-linejoin:miter;stroke-opacity:1"
       d="M 176.1229,431.26709 151.16653,539.05596"
       id="path3322-0"
       inkscape:connector-curvature="0" />
    <flowRoot
       xml:space="preserve"
       id="flowRoot3131-3-8-4"
       style="font-size:40px;font-style:normal;font-weight:normal;text-align:center;line-height:125%;letter-spacing:0px;word-spacing:0px;text-anchor:middle;fill:#000000;fill-opacity:1;stroke:none;font-family:Sans"
       transform="translate(-494.9558,443.53784)"><flowRegion
         id="flowRegion3133-3-2-7"><rect
           id="rect3135-6-7-3"
           width="174.75639"
           height="113.13708"
           x="510.12704"
           y="126.0523"
           style="text-align:center;text-anchor:middle" /></flowRegion><flowPara
         id="flowPara3137-5-0-0"
         style="font-size:25px;text-align:center;text-anchor:middle">L2 substate root modifications</flowPara></flowRoot>    <path
       style="fill:none;stroke:#000000;stroke-width:1.45564234px;stroke-linecap:butt;stroke-linejoin:miter;stroke-opacity:1"
       d="M 294.99941,843.53787 250.98804,733.88688"
       id="path3312-2"
       inkscape:connector-curvature="0" />
    <path
       style="fill:none;stroke:#000000;stroke-width:1.09486485px;stroke-linecap:butt;stroke-linejoin:miter;stroke-opacity:1"
       d="M 317.40315,733.70648 282.12238,835.63704"
       id="path3316-5"
       inkscape:connector-curvature="0" />
    <path
       style="fill:none;stroke:#000000;stroke-width:1.21991837px;stroke-linecap:butt;stroke-linejoin:miter;stroke-opacity:1"
       d="m 298.3575,734.77918 26.04404,101.80548"
       id="path3320-4"
       inkscape:connector-curvature="0" />
    <path
       style="fill:none;stroke:#000000;stroke-width:1.40885973px;stroke-linecap:butt;stroke-linejoin:miter;stroke-opacity:1"
       d="M 277.84007,735.88379 246.93419,838.5105"
       id="path3322-1"
       inkscape:connector-curvature="0" />
    <path
       style="fill:none;stroke:#000000;stroke-width:1.29746187px;stroke-linecap:butt;stroke-linejoin:miter;stroke-opacity:1"
       d="M 336.98969,734.81794 312.03332,842.60681"
       id="path3322-0-7"
       inkscape:connector-curvature="0" />
    <path
       style="fill:none;stroke:#000000;stroke-width:1.14724553;stroke-linecap:butt;stroke-linejoin:miter;stroke-opacity:1"
       d="M 593.62541,552.18605 355.91799,678.75637"
       id="path3320-4-5"
       inkscape:connector-curvature="0" />
    <path
       style="fill:none;stroke:#000000;stroke-width:0.73962384;stroke-linecap:butt;stroke-linejoin:miter;stroke-opacity:1"
       d="M 395.33424,536.32488 306.72178,677.44495"
       id="path3320-4-5-1"
       inkscape:connector-curvature="0" />
    <path
       style="fill:none;stroke:#000000;stroke-width:1.21896303;stroke-linecap:butt;stroke-linejoin:miter;stroke-opacity:1"
       d="M 530.45501,510.30058 328.17465,678.21543"
       id="path3320-4-5-18"
       inkscape:connector-curvature="0" />
    <flowRoot
       xml:space="preserve"
       id="flowRoot3131-3-9"
       style="font-size:40px;font-style:normal;font-weight:normal;line-height:125%;letter-spacing:0px;word-spacing:0px;fill:#000000;fill-opacity:1;stroke:none;font-family:Sans"
       transform="translate(-466.67152,258.67992)"><flowRegion
         id="flowRegion3133-3-27"><rect
           id="rect3135-6-4"
           width="174.75639"
           height="113.13708"
           x="510.12704"
           y="126.0523" /></flowRegion><flowPara
         id="flowPara3137-5-8"
         style="font-size:25px;text-align:center;text-anchor:middle">L2 block</flowPara></flowRoot>    <flowRoot
       xml:space="preserve"
       id="flowRoot3131-3-9-8"
       style="font-size:40px;font-style:normal;font-weight:normal;line-height:125%;letter-spacing:0px;word-spacing:0px;fill:#000000;fill-opacity:1;stroke:none;font-family:Sans"
       transform="translate(-308.7642,563.20855)"><flowRegion
         id="flowRegion3133-3-27-4"><rect
           id="rect3135-6-4-8"
           width="174.75639"
           height="113.13708"
           x="510.12704"
           y="126.0523" /></flowRegion><flowPara
         id="flowPara3137-5-8-4"
         style="font-size:25px;text-align:center;text-anchor:middle">L3 block</flowPara></flowRoot>    <flowRoot
       xml:space="preserve"
       id="flowRoot3131-3-8-4-5"
       style="font-size:40px;font-style:normal;font-weight:normal;text-align:center;line-height:125%;letter-spacing:0px;word-spacing:0px;text-anchor:middle;fill:#000000;fill-opacity:1;stroke:none;font-family:Sans"
       transform="translate(-377.80554,756.21241)"><flowRegion
         id="flowRegion3133-3-2-7-7"><rect
           id="rect3135-6-7-3-2"
           width="174.75639"
           height="113.13708"
           x="510.12704"
           y="126.0523"
           style="text-align:center;text-anchor:middle" /></flowRegion><flowPara
         id="flowPara3137-5-0-0-0"
         style="font-size:25px;text-align:center;text-anchor:middle">Bottom-level state modifications</flowPara></flowRoot>    <flowRoot
       xml:space="preserve"
       id="flowRoot3244"
       style="font-size:40px;font-style:normal;font-weight:normal;line-height:125%;letter-spacing:0px;word-spacing:0px;fill:#000000;fill-opacity:1;stroke:none;font-family:Sans"
       transform="translate(50.507627,-15.152288)"><flowRegion
         id="flowRegion3246"><rect
           id="rect3248"
           width="186.87825"
           height="88.893433"
           x="456.58896"
           y="693.75806" /></flowRegion><flowPara
         id="flowPara3250"
         style="font-size:16px">Validator set for L3 block (Merkle proofs from header chain provided)</flowPara></flowRoot>    <path
       style="fill:none;stroke:#000000;stroke-width:1.28157592px;stroke-linecap:butt;stroke-linejoin:miter;stroke-opacity:1"
       d="m 454.70944,626.72367 46.18543,63.35802"
       id="path3320-2"
       inkscape:connector-curvature="0" />
  </g>
</svg>
